# xmcd
#
# Track frame offsets:
#	150
#	18841
#	38177
#	56100
#	72168
#	85960
#	104010
#	116837
#	136800
#	150750
#	168675
#	178950
#	195105
#	208080
#	222450
#	236025
#	252030
#	263935
#	279725
#	291600
#	308700
#	320740
#
# Disc length: 4320 seconds
#
# Revision: 1
# Processed by: cddbd v1.5.2PL0 Copyright (c) Steve Scherf et al.
# Submitted via: audiograbber 1.83.01
#
DISCID=5310de16
DTITLE=Autumm Leaves and Emsland Hillbillies - Texas Lone Star
DYEAR=1994
DGENRE=Country
TTITLE0=20 Years Of Gold
TTITLE1=Texas Arizona Highway
TTITLE2=Rock'n Roll Cowboys
TTITLE3=The Dealer
TTITLE4=Steppin'out On Me
TTITLE5=Hey Nashville
TTITLE6=My Life in Song
TTITLE7=Land Of Broken Dreams
TTITLE8=Here I Am Again
TTITLE9=Lone Star Gal
TTITLE10=Never Find My Way Back Home
TTITLE11=Now That He's Gone
TTITLE12=Roadshow's Back In Town
TTITLE13=Nightinggale
TTITLE14=Diamondhead
TTITLE15=Green Pastures Traditional
TTITLE16=Stumblin' Out Of The Stumble Inn
TTITLE17=In The Desert
TTITLE18=Barstool Paradise
TTITLE19=It Could Be In Texas Tonight
TTITLE20=Swing Across Texas
TTITLE21=20 Years Of Gold - Reprise
EXTD=
EXTT0=
EXTT1=
EXTT2=
EXTT3=
EXTT4=
EXTT5=
EXTT6=
EXTT7=
EXTT8=
EXTT9=
EXTT10=
EXTT11=
EXTT12=
EXTT13=
EXTT14=
EXTT15=
EXTT16=
EXTT17=
EXTT18=
EXTT19=
EXTT20=
EXTT21=
PLAYORDER=
